<!DOCTYPE svg PUBLIC "-//W3C//DTD SVG 1.1//EN" "http://www.w3.org/Graphics/SVG/1.1/DTD/svg11.dtd">
<!-- Uploaded to: SVG Repo, www.svgrepo.com, Transformed by: SVG Repo Mixer Tools -->
<svg fill="#000000" version="1.1" id="Capa_1" xmlns="http://www.w3.org/2000/svg" xmlns:xlink="http://www.w3.org/1999/xlink" viewBox="0 0 60.00 60.00" xml:space="preserve" width="256px" height="256px" stroke="#000000" stroke-width="1.3800000000000001">
<g id="SVGRepo_bgCarrier" stroke-width="0"/>
<g id="SVGRepo_tracerCarrier" stroke-linecap="round" stroke-linejoin="round" stroke="#CCCCCC" stroke-width="0.36"/>
<g id="SVGRepo_iconCarrier"> <g> <g> <path d="M13,14c0.6,0,1-0.4,1-1V2h36v14h2V1c0-0.6-0.4-1-1-1H13l0,0c-0.1,0-0.2,0-0.3,0.1h-0.1c-0.1,0.1-0.2,0.1-0.3,0.2l0,0 l-12,12l0,0c-0.1,0.1-0.1,0.2-0.2,0.3v0.1C0.1,12.8,0,12.9,0,13l0,0v47h2V14L13,14L13,14z M3.4,12l4.3-4.3L12,3.4V12H3.4z"/> <path d="M59.6,29.5l-26-19.3c-0.4-0.3-0.8-0.3-1.2,0L7.1,29H7v0.1l-0.6,0.4C6.1,29.7,6,30,6,30.3V34c0,0.6,0.4,1,1,1h3v25h2V35h42 v25h2V35h3c0.6,0,1-0.4,1-1v-3.7C60,30,59.9,29.7,59.6,29.5z M58,33h-3H11H8v-2h40v-2H10.4L33,12.2l25,18.6V33z"/> <rect x="31" y="19" width="4" height="2"/> <rect x="28" y="23" width="10" height="2"/> <rect x="14" y="37" width="2" height="2"/> <rect x="18" y="37" width="2" height="2"/> <rect x="22" y="37" width="2" height="2"/> <rect x="26" y="37" width="2" height="2"/> <rect x="30" y="37" width="2" height="2"/> <rect x="34" y="37" width="2" height="2"/> <rect x="38" y="37" width="2" height="2"/> <rect x="42" y="37" width="2" height="2"/> <rect x="46" y="37" width="2" height="2"/> <rect x="50" y="37" width="2" height="2"/> <polygon points="17,43 14,43 14,45 16,45 16,60 18,60 18,45 27,45 27,60 29,60 29,45 31,45 31,43 28,43 "/> <rect x="23" y="51" width="2" height="2"/> <path d="M50,43H36c-0.6,0-1,0.4-1,1v12h2v-5h5v5h2v-5h5v5h2V44C51,43.4,50.6,43,50,43z M37,49v-4h5v4H37z M44,49v-4h5v4H44z"/> <rect x="41" y="5" width="6" height="2"/> <rect x="38" y="9" width="9" height="2"/> </g> </g> </g>
</svg>